<?xml version="1.0" encoding="UTF-8" standalone="no"?>
<!DOCTYPE svg PUBLIC "-//W3C//DTD SVG 1.1//EN"
 "http://www.w3.org/Graphics/SVG/1.1/DTD/svg11.dtd">
<!-- Generated by graphviz version 12.1.1 (20240910.0053)
 -->
<!-- Title: INFRA Pages: 1 -->
<svg width="1231pt" height="404pt"
 viewBox="0.00 0.00 1231.24 404.00" xmlns="http://www.w3.org/2000/svg" xmlns:xlink="http://www.w3.org/1999/xlink">
<g id="graph0" class="graph" transform="scale(1 1) rotate(0) translate(4 400)">
<title>INFRA</title>
<polygon fill="white" stroke="none" points="-4,4 -4,-400 1227.24,-400 1227.24,4 -4,4"/>
<!-- postgresql -->
<g id="node1" class="node">
<title>postgresql</title>
<path fill="#ffcfb3" stroke="black" stroke-width="2" d="M659.47,-173.45C659.47,-177.07 620.32,-180 572.12,-180 523.92,-180 484.77,-177.07 484.77,-173.45 484.77,-173.45 484.77,-114.55 484.77,-114.55 484.77,-110.93 523.92,-108 572.12,-108 620.32,-108 659.47,-110.93 659.47,-114.55 659.47,-114.55 659.47,-173.45 659.47,-173.45"/>
<path fill="none" stroke="black" stroke-width="2" d="M659.47,-173.45C659.47,-169.84 620.32,-166.91 572.12,-166.91 523.92,-166.91 484.77,-169.84 484.77,-173.45"/>
<text text-anchor="middle" x="572.12" y="-148.2" font-family="Arial" font-size="14.00">postgresql</text>
<text text-anchor="middle" x="572.12" y="-131.4" font-family="Arial" font-size="14.00">(AWS::RDS::DBInstance)</text>
</g>
<!-- mongodb -->
<g id="node2" class="node">
<title>mongodb</title>
<path fill="#ffcfb3" stroke="black" stroke-width="2" d="M346.58,-173.45C346.58,-177.07 306.03,-180 256.12,-180 206.21,-180 165.67,-177.07 165.67,-173.45 165.67,-173.45 165.67,-114.55 165.67,-114.55 165.67,-110.93 206.21,-108 256.12,-108 306.03,-108 346.58,-110.93 346.58,-114.55 346.58,-114.55 346.58,-173.45 346.58,-173.45"/>
<path fill="none" stroke="black" stroke-width="2" d="M346.58,-173.45C346.58,-169.84 306.03,-166.91 256.12,-166.91 206.21,-166.91 165.67,-169.84 165.67,-173.45"/>
<text text-anchor="middle" x="256.12" y="-148.2" font-family="Arial" font-size="14.00">mongodb</text>
<text text-anchor="middle" x="256.12" y="-131.4" font-family="Arial" font-size="14.00">(AWS::DocDB::DBCluster)</text>
</g>
<!-- zookeeper -->
<g id="node3" class="node">
<title>zookeeper</title>
<path fill="#cce0ac" stroke="black" stroke-width="2" d="M135.85,-72C135.85,-72 12.39,-72 12.39,-72 6.39,-72 0.39,-66 0.39,-60 0.39,-60 0.39,-12 0.39,-12 0.39,-6 6.39,0 12.39,0 12.39,0 135.85,0 135.85,0 141.85,0 147.85,-6 147.85,-12 147.85,-12 147.85,-60 147.85,-60 147.85,-66 141.85,-72 135.85,-72"/>
<text text-anchor="middle" x="74.12" y="-40.2" font-family="Arial" font-size="14.00">zookeeper</text>
<text text-anchor="middle" x="74.12" y="-23.4" font-family="Arial" font-size="14.00">(AWS::MSK::Cluster)</text>
</g>
<!-- kafka -->
<g id="node4" class="node">
<title>kafka</title>
<path fill="#cce0ac" stroke="black" stroke-width="2" d="M135.85,-180C135.85,-180 12.39,-180 12.39,-180 6.39,-180 0.39,-174 0.39,-168 0.39,-168 0.39,-120 0.39,-120 0.39,-114 6.39,-108 12.39,-108 12.39,-108 135.85,-108 135.85,-108 141.85,-108 147.85,-114 147.85,-120 147.85,-120 147.85,-168 147.85,-168 147.85,-174 141.85,-180 135.85,-180"/>
<text text-anchor="middle" x="74.12" y="-148.2" font-family="Arial" font-size="14.00">kafka</text>
<text text-anchor="middle" x="74.12" y="-131.4" font-family="Arial" font-size="14.00">(AWS::MSK::Cluster)</text>
</g>
<!-- kafka&#45;&gt;zookeeper -->
<g id="edge1" class="edge">
<title>kafka&#45;&gt;zookeeper</title>
<path fill="none" stroke="black" d="M74.12,-107.7C74.12,-99.93 74.12,-91.57 74.12,-83.43"/>
<polygon fill="black" stroke="black" points="77.62,-83.66 74.12,-73.66 70.62,-83.66 77.62,-83.66"/>
</g>
<!-- mail&#45;dev -->
<g id="node5" class="node">
<title>mail&#45;dev</title>
<path fill="#e6e6e6" stroke="black" stroke-width="2" d="M715.66,-396C715.66,-396 534.58,-396 534.58,-396 528.58,-396 522.58,-390 522.58,-384 522.58,-384 522.58,-336 522.58,-336 522.58,-330 528.58,-324 534.58,-324 534.58,-324 715.66,-324 715.66,-324 721.66,-324 727.66,-330 727.66,-336 727.66,-336 727.66,-384 727.66,-384 727.66,-390 721.66,-396 715.66,-396"/>
<text text-anchor="middle" x="625.12" y="-364.2" font-family="Arial" font-size="14.00">mail&#45;dev</text>
<text text-anchor="middle" x="625.12" y="-347.4" font-family="Arial" font-size="14.00">(AWS::SES::ConfigurationSet)</text>
</g>
<!-- zipkin -->
<g id="node6" class="node">
<title>zipkin</title>
<path fill="#e6e6e6" stroke="black" stroke-width="2" d="M879.08,-396C879.08,-396 757.16,-396 757.16,-396 751.16,-396 745.16,-390 745.16,-384 745.16,-384 745.16,-336 745.16,-336 745.16,-330 751.16,-324 757.16,-324 757.16,-324 879.08,-324 879.08,-324 885.08,-324 891.08,-330 891.08,-336 891.08,-336 891.08,-384 891.08,-384 891.08,-390 885.08,-396 879.08,-396"/>
<text text-anchor="middle" x="818.12" y="-364.2" font-family="Arial" font-size="14.00">zipkin</text>
<text text-anchor="middle" x="818.12" y="-347.4" font-family="Arial" font-size="14.00">(AWS::XRay::Group)</text>
</g>
<!-- discovery&#45;service -->
<g id="node7" class="node">
<title>discovery&#45;service</title>
<path fill="#b7e0ff" stroke="black" stroke-width="2" d="M1045.24,-396C1045.24,-396 921,-396 921,-396 915,-396 909,-390 909,-384 909,-384 909,-336 909,-336 909,-330 915,-324 921,-324 921,-324 1045.24,-324 1045.24,-324 1051.24,-324 1057.24,-330 1057.24,-336 1057.24,-336 1057.24,-384 1057.24,-384 1057.24,-390 1051.24,-396 1045.24,-396"/>
<text text-anchor="middle" x="983.12" y="-364.2" font-family="Arial" font-size="14.00">discovery&#45;service</text>
<text text-anchor="middle" x="983.12" y="-347.4" font-family="Arial" font-size="14.00">(AWS::ECS::Service)</text>
</g>
<!-- config&#45;server -->
<g id="node8" class="node">
<title>config&#45;server</title>
<path fill="#b7e0ff" stroke="black" stroke-width="2" d="M1211.24,-396C1211.24,-396 1087,-396 1087,-396 1081,-396 1075,-390 1075,-384 1075,-384 1075,-336 1075,-336 1075,-330 1081,-324 1087,-324 1087,-324 1211.24,-324 1211.24,-324 1217.24,-324 1223.24,-330 1223.24,-336 1223.24,-336 1223.24,-384 1223.24,-384 1223.24,-390 1217.24,-396 1211.24,-396"/>
<text text-anchor="middle" x="1149.12" y="-364.2" font-family="Arial" font-size="14.00">config&#45;server</text>
<text text-anchor="middle" x="1149.12" y="-347.4" font-family="Arial" font-size="14.00">(AWS::ECS::Service)</text>
</g>
<!-- gateway -->
<g id="node9" class="node">
<title>gateway</title>
<path fill="#e78f81" stroke="black" stroke-width="2" d="M492.76,-396C492.76,-396 319.48,-396 319.48,-396 313.48,-396 307.48,-390 307.48,-384 307.48,-384 307.48,-336 307.48,-336 307.48,-330 313.48,-324 319.48,-324 319.48,-324 492.76,-324 492.76,-324 498.76,-324 504.76,-330 504.76,-336 504.76,-336 504.76,-384 504.76,-384 504.76,-390 498.76,-396 492.76,-396"/>
<text text-anchor="middle" x="406.12" y="-364.2" font-family="Arial" font-size="14.00">gateway</text>
<text text-anchor="middle" x="406.12" y="-347.4" font-family="Arial" font-size="14.00">(AWS::ApiGateway::RestApi)</text>
</g>
<!-- product&#45;service -->
<g id="node10" class="node">
<title>product&#45;service</title>
<path fill="#b7e0ff" stroke="black" stroke-width="2" d="M634.24,-288C634.24,-288 510,-288 510,-288 504,-288 498,-282 498,-276 498,-276 498,-228 498,-228 498,-222 504,-216 510,-216 510,-216 634.24,-216 634.24,-216 640.24,-216 646.24,-222 646.24,-228 646.24,-228 646.24,-276 646.24,-276 646.24,-282 640.24,-288 634.24,-288"/>
<text text-anchor="middle" x="572.12" y="-256.2" font-family="Arial" font-size="14.00">product&#45;service</text>
<text text-anchor="middle" x="572.12" y="-239.4" font-family="Arial" font-size="14.00">(AWS::ECS::Service)</text>
</g>
<!-- gateway&#45;&gt;product&#45;service -->
<g id="edge2" class="edge">
<title>gateway&#45;&gt;product&#45;service</title>
<path fill="none" stroke="black" d="M461.4,-323.7C476.16,-314.28 492.24,-304.01 507.46,-294.29"/>
<polygon fill="black" stroke="black" points="508.98,-297.47 515.53,-289.14 505.22,-291.57 508.98,-297.47"/>
</g>
<!-- order&#45;service -->
<g id="node11" class="node">
<title>order&#45;service</title>
<path fill="#b7e0ff" stroke="black" stroke-width="2" d="M136.24,-288C136.24,-288 12,-288 12,-288 6,-288 0,-282 0,-276 0,-276 0,-228 0,-228 0,-222 6,-216 12,-216 12,-216 136.24,-216 136.24,-216 142.24,-216 148.24,-222 148.24,-228 148.24,-228 148.24,-276 148.24,-276 148.24,-282 142.24,-288 136.24,-288"/>
<text text-anchor="middle" x="74.12" y="-256.2" font-family="Arial" font-size="14.00">order&#45;service</text>
<text text-anchor="middle" x="74.12" y="-239.4" font-family="Arial" font-size="14.00">(AWS::ECS::Service)</text>
</g>
<!-- gateway&#45;&gt;order&#45;service -->
<g id="edge3" class="edge">
<title>gateway&#45;&gt;order&#45;service</title>
<path fill="none" stroke="black" d="M307.1,-333.73C263.96,-322.01 212.75,-307.16 159.32,-288.66"/>
<polygon fill="black" stroke="black" points="160.63,-285.41 150.04,-285.41 158.32,-292.02 160.63,-285.41"/>
</g>
<!-- customer&#45;service -->
<g id="node12" class="node">
<title>customer&#45;service</title>
<path fill="#b7e0ff" stroke="black" stroke-width="2" d="M468.24,-288C468.24,-288 344,-288 344,-288 338,-288 332,-282 332,-276 332,-276 332,-228 332,-228 332,-222 338,-216 344,-216 344,-216 468.24,-216 468.24,-216 474.24,-216 480.24,-222 480.24,-228 480.24,-228 480.24,-276 480.24,-276 480.24,-282 474.24,-288 468.24,-288"/>
<text text-anchor="middle" x="406.12" y="-256.2" font-family="Arial" font-size="14.00">customer&#45;service</text>
<text text-anchor="middle" x="406.12" y="-239.4" font-family="Arial" font-size="14.00">(AWS::ECS::Service)</text>
</g>
<!-- gateway&#45;&gt;customer&#45;service -->
<g id="edge4" class="edge">
<title>gateway&#45;&gt;customer&#45;service</title>
<path fill="none" stroke="black" d="M406.12,-323.7C406.12,-315.93 406.12,-307.57 406.12,-299.43"/>
<polygon fill="black" stroke="black" points="409.62,-299.66 406.12,-289.66 402.62,-299.66 409.62,-299.66"/>
</g>
<!-- product&#45;service&#45;&gt;postgresql -->
<g id="edge5" class="edge">
<title>product&#45;service&#45;&gt;postgresql</title>
<path fill="none" stroke="black" d="M572.12,-215.7C572.12,-207.93 572.12,-199.57 572.12,-191.43"/>
<polygon fill="black" stroke="black" points="575.62,-191.66 572.12,-181.66 568.62,-191.66 575.62,-191.66"/>
</g>
<!-- order&#45;service&#45;&gt;mongodb -->
<g id="edge6" class="edge">
<title>order&#45;service&#45;&gt;mongodb</title>
<path fill="none" stroke="black" d="M134.98,-215.56C151.56,-205.9 169.65,-195.36 186.68,-185.44"/>
<polygon fill="black" stroke="black" points="188.37,-188.51 195.25,-180.45 184.85,-182.46 188.37,-188.51"/>
</g>
<!-- order&#45;service&#45;&gt;kafka -->
<g id="edge7" class="edge">
<title>order&#45;service&#45;&gt;kafka</title>
<path fill="none" stroke="black" d="M74.12,-215.7C74.12,-207.93 74.12,-199.57 74.12,-191.43"/>
<polygon fill="black" stroke="black" points="77.62,-191.66 74.12,-181.66 70.62,-191.66 77.62,-191.66"/>
</g>
<!-- customer&#45;service&#45;&gt;mongodb -->
<g id="edge8" class="edge">
<title>customer&#45;service&#45;&gt;mongodb</title>
<path fill="none" stroke="black" d="M356.17,-215.7C343.09,-206.46 328.85,-196.39 315.33,-186.84"/>
<polygon fill="black" stroke="black" points="317.53,-184.11 307.34,-181.2 313.49,-189.83 317.53,-184.11"/>
</g>
<!-- notification&#45;service -->
<g id="node13" class="node">
<title>notification&#45;service</title>
<path fill="#b7e0ff" stroke="black" stroke-width="2" d="M302.24,-288C302.24,-288 178,-288 178,-288 172,-288 166,-282 166,-276 166,-276 166,-228 166,-228 166,-222 172,-216 178,-216 178,-216 302.24,-216 302.24,-216 308.24,-216 314.24,-222 314.24,-228 314.24,-228 314.24,-276 314.24,-276 314.24,-282 308.24,-288 302.24,-288"/>
<text text-anchor="middle" x="240.12" y="-256.2" font-family="Arial" font-size="14.00">notification&#45;service</text>
<text text-anchor="middle" x="240.12" y="-239.4" font-family="Arial" font-size="14.00">(AWS::ECS::Service)</text>
</g>
<!-- notification&#45;service&#45;&gt;mongodb -->
<g id="edge9" class="edge">
<title>notification&#45;service&#45;&gt;mongodb</title>
<path fill="none" stroke="black" d="M245.45,-215.7C246.62,-207.93 247.88,-199.57 249.11,-191.43"/>
<polygon fill="black" stroke="black" points="252.56,-192.05 250.59,-181.64 245.64,-191 252.56,-192.05"/>
</g>
<!-- notification&#45;service&#45;&gt;kafka -->
<g id="edge10" class="edge">
<title>notification&#45;service&#45;&gt;kafka</title>
<path fill="none" stroke="black" d="M184.85,-215.7C170.08,-206.28 154,-196.01 138.78,-186.29"/>
<polygon fill="black" stroke="black" points="141.03,-183.57 130.71,-181.14 137.26,-189.47 141.03,-183.57"/>
</g>
</g>
</svg>
